<?xml version="1.0" standalone="no"?>
<!DOCTYPE svg PUBLIC "-//W3C//DTD SVG 20010904//EN"
 "http://www.w3.org/TR/2001/REC-SVG-20010904/DTD/svg10.dtd">
<svg version="1.0" xmlns="http://www.w3.org/2000/svg"
 width="1500.000000pt" height="1500.000000pt" viewBox="0 0 1500.000000 1500.000000"
 preserveAspectRatio="xMidYMid meet">
<metadata>
Created by potrace 1.14, written by Peter Selinger 2001-2017
</metadata>
<g transform="translate(0.000000,1500.000000) scale(0.100000,-0.100000)"
fill="#000000" stroke="none">
<path d="M7440 10604 c-432 -47 -723 -120 -1030 -259 -170 -77 -252 -123 -409
-229 -448 -303 -755 -740 -860 -1227 -26 -120 -51 -323 -51 -410 0 -61 2 -67
22 -73 13 -3 26 -2 30 2 4 4 36 60 73 125 319 573 495 763 713 774 95 5 135
-13 172 -78 23 -40 25 -54 25 -164 -1 -126 -18 -241 -61 -410 -30 -119 -135
-476 -164 -559 -11 -33 -20 -61 -20 -64 0 -2 17 11 37 28 64 57 137 84 233 88
114 5 184 -20 256 -92 88 -89 109 -173 119 -486 7 -203 19 -338 34 -353 4 -4
14 -1 21 8 7 8 19 15 26 15 9 0 14 12 14 33 0 17 7 61 15 96 49 208 229 387
426 424 37 7 61 17 64 27 11 37 65 376 77 485 17 159 17 704 0 845 -14 111
-54 305 -77 369 l-13 39 71 12 c40 6 136 14 213 17 236 9 413 -21 572 -99 72
-35 103 -58 177 -133 183 -183 278 -442 260 -705 -19 -281 -114 -543 -274
-757 l-69 -93 36 -10 c82 -22 167 -108 178 -181 l6 -39 29 40 c37 51 120 117
186 147 192 88 428 55 547 -78 25 -28 46 -56 46 -63 0 -6 13 12 29 40 66 114
213 171 343 132 22 -6 61 -31 88 -55 l47 -42 66 137 c144 300 214 580 232 922
26 487 -172 993 -515 1317 -99 94 -135 122 -260 206 -238 159 -500 254 -845
308 -119 18 -190 22 -470 24 -181 2 -346 1 -365 -1z"/>
<path d="M3031 8064 c-182 -49 -315 -187 -327 -341 -5 -65 -11 -68 61 41 41
62 76 85 110 72 30 -11 13 -102 -59 -325 -75 -233 -96 -323 -96 -416 0 -124
48 -179 151 -173 36 3 66 11 86 26 29 21 30 22 31 114 1 79 34 293 47 307 3 2
31 -5 62 -15 141 -46 281 -8 383 102 60 67 85 112 106 196 49 192 -50 364
-238 414 -68 18 -247 17 -317 -2z m208 -192 c42 -21 81 -89 81 -142 0 -127
-105 -240 -222 -240 -33 0 -32 -5 -12 112 16 89 15 209 -2 266 -6 21 -4 22 57
22 41 0 76 -6 98 -18z"/>
<path d="M4053 8055 c-81 -22 -147 -60 -202 -115 -68 -68 -84 -101 -89 -191
-4 -61 -1 -84 16 -122 27 -61 96 -133 207 -216 128 -96 165 -140 165 -194 0
-104 -110 -174 -184 -116 -47 37 -69 94 -74 197 l-5 92 -34 0 c-18 0 -51 -9
-72 -20 -113 -57 -159 -201 -101 -315 29 -56 94 -107 163 -127 54 -16 176 -15
247 2 146 33 297 152 340 267 54 145 5 236 -188 349 -116 68 -177 116 -197
154 -18 35 -19 129 -2 151 17 23 72 49 101 49 63 0 114 -90 102 -179 l-6 -43
47 7 c59 9 89 24 130 67 94 99 44 253 -98 303 -53 19 -196 19 -266 0z"/>
<path d="M4696 8055 c-51 -18 -90 -57 -115 -116 -20 -46 -40 -169 -28 -169 3
0 19 14 35 30 30 29 64 38 89 22 18 -11 0 -118 -47 -293 -55 -198 -70 -284
-70 -392 0 -139 41 -204 136 -215 54 -6 96 11 133 53 41 47 47 94 20 147 -32
62 -36 182 -14 410 l18 191 27 -54 c37 -73 71 -174 118 -354 67 -252 111 -343
183 -380 43 -23 134 -19 179 6 64 36 101 127 63 154 -35 26 -21 141 66 555 51
240 39 365 -39 405 -43 22 -81 18 -131 -13 -80 -52 -81 -56 -68 -163 7 -57 9
-144 5 -219 -6 -124 -37 -443 -42 -438 -1 2 -16 72 -33 156 -55 272 -141 492
-232 596 -46 52 -128 96 -178 96 -20 -1 -53 -7 -75 -15z"/>
<path d="M6033 8039 c-91 -43 -153 -136 -153 -226 0 -36 16 -27 28 15 14 46
45 77 68 68 13 -5 16 -17 12 -69 -4 -75 -35 -140 -162 -340 -151 -238 -200
-356 -194 -464 3 -53 6 -59 37 -80 43 -29 119 -30 179 -3 47 21 62 48 62 110
0 50 19 138 31 146 10 6 260 6 266 0 3 -2 11 -32 19 -67 30 -128 111 -209 209
-209 106 0 195 96 195 208 l0 35 -23 -21 c-29 -27 -71 -28 -96 -3 -39 39 -51
114 -62 371 -13 332 -30 421 -92 489 -70 75 -214 94 -324 40z m157 -379 c5
-47 10 -131 10 -187 l0 -103 -52 -1 c-29 0 -75 -4 -103 -9 -27 -4 -51 -7 -51
-6 -1 0 27 73 62 161 35 88 72 195 81 238 l18 79 13 -44 c7 -24 17 -81 22
-128z"/>
<path d="M11257 7976 c-27 -7 -52 -17 -56 -22 -4 -5 -20 -74 -35 -154 l-27
-146 -42 -26 c-44 -28 -104 -85 -96 -92 2 -2 28 1 57 6 29 6 55 9 57 6 3 -3
-7 -72 -21 -154 -33 -192 -35 -314 -7 -369 37 -71 94 -105 177 -105 95 0 195
60 237 141 19 38 25 74 12 67 -84 -43 -125 -45 -159 -6 -25 27 -24 157 1 316
l17 113 72 -3 71 -3 11 46 c7 25 9 58 7 73 -5 25 -8 26 -70 26 -56 0 -64 2
-60 18 3 9 17 60 32 114 32 116 28 130 -47 153 -61 18 -68 18 -131 1z"/>
<path d="M5727 7582 c-37 -107 -66 -197 -64 -198 2 -2 50 71 107 163 77 123
100 168 90 171 -8 3 -26 17 -40 32 l-25 27 -68 -195z"/>
<path d="M7091 7719 c-122 -21 -257 -117 -325 -232 -125 -213 -60 -480 135
-553 58 -22 177 -22 253 0 141 42 246 148 246 251 0 44 -9 44 -37 1 -40 -63
-182 -105 -255 -76 -85 34 -123 109 -122 236 0 69 5 90 29 139 36 69 79 105
127 105 51 0 63 -20 61 -103 l-2 -69 47 7 c101 15 162 67 170 144 4 46 2 52
-34 91 -58 62 -156 82 -293 59z"/>
<path d="M7854 7716 c-166 -38 -306 -168 -355 -328 -70 -231 42 -442 251 -473
63 -9 174 11 245 44 65 30 134 91 160 140 18 36 32 121 19 121 -5 0 -22 -16
-37 -35 -59 -75 -183 -105 -269 -67 -67 29 -100 90 -106 192 -6 106 15 176 72
235 37 39 48 45 84 45 54 0 66 -21 60 -107 l-4 -64 50 6 c134 18 213 128 154
215 -49 74 -189 107 -324 76z"/>
<path d="M8632 7719 c-275 -54 -451 -397 -327 -639 98 -191 405 -225 599 -66
134 110 204 345 148 498 -60 165 -225 246 -420 207z m93 -153 c68 -68 75 -326
12 -451 -25 -50 -44 -64 -84 -65 -70 0 -108 103 -101 274 5 120 28 198 69 242
29 31 73 31 104 0z"/>
<path d="M8649 7463 c-28 -92 -20 -323 11 -323 29 0 52 239 31 318 -14 52 -27
53 -42 5z"/>
<path d="M11927 7720 c-59 -10 -161 -57 -205 -95 -75 -63 -95 -169 -44 -242
34 -51 65 -77 172 -142 117 -72 140 -96 140 -142 0 -45 -27 -69 -78 -69 -71 0
-122 61 -137 164 l-7 48 -37 -5 c-130 -17 -193 -128 -128 -226 40 -60 115 -93
230 -99 51 -2 119 1 152 7 130 24 270 123 296 209 29 99 -19 162 -199 256
-124 64 -162 100 -162 150 0 47 21 70 64 70 53 0 96 -46 103 -109 l6 -47 36 7
c104 18 151 57 151 127 0 33 -7 47 -38 78 -62 62 -174 83 -315 60z"/>
<path d="M9285 7701 c-52 -23 -101 -80 -115 -131 -13 -48 -4 -70 17 -41 9 13
25 21 43 21 51 0 52 -31 6 -243 -41 -187 -33 -269 33 -340 49 -52 110 -61 189
-27 49 21 125 91 164 150 l16 25 7 -40 c4 -22 16 -56 27 -76 72 -130 294 -90
339 62 14 46 7 59 -19 36 -10 -10 -33 -17 -50 -17 -26 0 -33 5 -38 26 -11 44
3 123 47 264 63 206 58 279 -24 331 -48 30 -125 22 -175 -18 l-37 -30 -1 -109
c-1 -94 -5 -121 -31 -198 -51 -145 -123 -233 -171 -207 -37 20 -38 70 -2 242
35 172 36 233 3 277 -45 60 -148 80 -228 43z"/>
<path d="M10215 7701 c-64 -28 -125 -113 -125 -172 0 -20 1 -21 25 -5 29 19
56 21 73 4 20 -20 14 -97 -19 -228 -39 -154 -43 -249 -13 -300 62 -106 202
-106 257 0 16 30 17 48 11 130 -10 141 -8 184 16 237 36 81 98 133 159 133 51
0 52 -33 5 -239 -30 -133 -31 -201 -3 -258 51 -105 202 -111 296 -12 34 36 53
76 53 111 0 20 -1 20 -19 4 -28 -25 -64 -17 -75 17 -7 20 -3 65 17 175 37 202
42 260 27 321 -17 71 -54 101 -124 101 -78 0 -158 -44 -240 -131 l-66 -69 0
38 c0 55 -38 123 -80 144 -45 23 -124 23 -175 -1z"/>
<path d="M7870 7468 c-38 -63 -40 -197 -3 -246 39 -53 144 -54 192 -3 14 16
36 40 48 55 15 18 31 26 52 26 26 0 31 4 31 24 0 12 5 37 11 55 15 41 8 46
-25 20 -32 -25 -90 -44 -169 -53 -55 -7 -58 -6 -88 23 -29 29 -30 35 -24 81 4
28 4 50 1 50 -4 0 -15 -14 -26 -32z"/>
<path d="M7079 7433 c-16 -41 -16 -153 0 -191 16 -39 56 -62 106 -62 49 0 87
21 130 74 20 25 46 46 58 48 12 2 23 13 27 28 4 14 10 37 13 52 l7 27 -47 -25
c-53 -27 -154 -47 -194 -38 -38 8 -61 37 -61 78 0 44 -23 49 -39 9z"/>
<path d="M9151 7378 l1 -63 14 50 c17 64 17 75 -1 75 -12 0 -15 -13 -14 -62z"/>
<path d="M9117 7193 c-10 -32 -36 -84 -57 -116 -45 -67 -41 -69 22 -11 43 40
45 44 51 113 3 39 5 71 4 71 -1 0 -10 -26 -20 -57z"/>
<path d="M6043 7123 c-48 -5 -47 -4 -58 -105 -8 -74 -37 -115 -104 -150 -141
-74 -327 -1 -332 129 -2 67 -177 -534 -264 -907 -130 -563 -133 -1015 -10
-1297 62 -141 182 -260 339 -338 283 -140 656 -79 952 156 l76 61 -6 47 c-38
288 -21 779 40 1151 30 182 204 943 218 958 2 1 30 -9 62 -23 112 -51 289
-114 389 -138 218 -55 276 -62 520 -62 199 0 245 3 343 23 199 40 413 120 537
201 28 18 41 30 30 26 -10 -3 -52 -10 -93 -15 -184 -24 -347 43 -432 177 l-27
43 -26 -39 c-34 -51 -100 -105 -170 -137 -73 -33 -206 -57 -274 -50 -108 12
-227 78 -273 150 -11 17 -24 37 -28 44 -7 10 -22 0 -61 -41 -93 -98 -224 -151
-376 -151 -124 0 -189 26 -271 109 l-62 61 -18 -34 c-23 -42 -76 -89 -128
-113 -141 -64 -320 34 -373 203 -12 40 -23 58 -35 58 -9 0 -22 1 -30 3 -7 2
-32 2 -55 0z"/>
</g>
</svg>
